<?xml version="1.0" encoding="UTF-8"?>
<svg version="1.1" viewBox="0 0 2000 2000" width="500" height="500" xmlns="http://www.w3.org/2000/svg">
<path transform="translate(1289,528)" d="m0 0h138l2 2 5 13 17 39 16 37 20 46 14 32 13 30 29 67 8 18v2l3-2 11-23 25-50 11-23 26-53 11-23 8-16 25-51 18-37 2-5h136l1 6v524l-1 1-141 1-8-1-1-2v-241h-2l-3 11-18 44-17 44-20 51-18 45-13 33-7 18-2 2h-48l-10-23-8-21-17-44-14-36-18-46-17-44-11-28-3-2v57l-1 117v63l-1 1h-142l-1-1v-189l2-303z" fill="#0185BB"/>
<path transform="translate(737,535)" d="m0 0h160l1 2v186h180v-187l1-1h144l1 1v524l-3 1h-142l-1-1v-205h-180v205l-2 1h-159l-1-4v-520z" fill="#0185BB"/>
<path transform="translate(344,555)" d="m0 0h152l1 2v134l18-13 18-14 19-14 13-10 18-14 7-5h3l12 23 14 24 10 19 12 21 13 24 10 18 1 5-13 8-25 15-27 16-10 6-3 1h-76l-6-12-8-21-11-26h-2l-7 21-10 33-11 35-6 18h-3l-8-39-8-40-6-31-7-34-2 3-14 55-10 40-4 2-66 2-1 16 80-1 8-25 4-13h3l11 50 12 54 9 39 2 3 6-24 10-36 16-61 4-17 2-2 3 8 5 23 44 1h46l7 3 26 17 35 23 11 7 6 4-1 5-13 24-14 24-12 22-14 24-14 25-6 10-4-1-29-16-24-14-23-13-21-12-1 112-81 1h-65l-1-1v-114l-29 16-22 13-23 13-16 9-11 6h-2l-13-23-13-22-45-78-2-4v-3l16-9 24-14 26-15 29-17 9-5h2l-1-3-16-9-17-10-26-15-28-16-16-10 5-9 12-20 16-28 14-24 12-21 15-26 4-1 29 17 26 15 21 12 16 9-1-4z" fill="#E8373A"/>
<path transform="translate(269,1161)" d="m0 0h44l3 5 13 34 17 42 32 80 11 28 26 65 2 1 8-21 12-29 13-33 11-28 32-80 15-38 10-25 1-1h43v301l-1 1h-27v-264l-2 1-11 28-15 38-19 48-18 46-15 38-13 33-12 30-2 2h-22l-4-5-22-56-19-48-49-124-13-33-2-1 1 2v264l-1 1h-26l-1-1z" fill="#4D4C4D"/>
<path transform="translate(588,823)" d="m0 0 5 2 26 17 35 23 11 7 6 4-1 5-13 24-14 24-12 22-14 24-14 25-6 10-4-1-29-16-24-14-23-13-21-12-1 112-81 1h-65l-1-1v-72h1l1 11 2 7 12-2 4-3 11-5 9-5h4v-2l11-6 4-2v-2l8-2v-2l5-2v-2l6-2v-2l5-2 1-4 5-4 7-4 10-10 3-4 5-3 6-5h2l2-4h3l1-3h2l2-4h2l2-4 4-2 2-3h2v-2l4-2 8-8h3l2-4 4-2v-2l5-5h2l1-3h3v-2h2l2-4 5-4 3-5 4-1v-2h2v-2h2l2-4 5-6h3l1-4 5-5 3-1 2-5h2v-2h2v-3l8-7h2l-1-4-16-2v-1h17l8-1z" fill="#E94950"/>
<path transform="translate(708,1234)" d="m0 0h20l13 2 16 5 12 6 13 10 7 7 7 10 4 5v-39h28v222l-1 1h-26l-1-5v-17l1-17h-2l-2 4-11 13-9 8-14 9-16 6-14 3h-31l-14-3-16-6-15-8-14-11-9-9-10-14-8-15-5-15-3-14-1-8v-22l3-19 6-18 8-16 7-11 11-12 7-7 13-9 15-8 18-6zm0 30-17 4-15 8-11 9-10 10-10 15-7 17-2 10v22l4 20 7 16 7 11 7 9 8 7 14 9 12 5 12 3h21l16-4 16-8 10-8 8-7 8-10 7-12 6-16 2-14v-13l-2-17-7-19-8-13-9-10-10-9-14-8-13-5-10-2z" fill="#4E4D4E"/>
<path transform="translate(1084,1234)" d="m0 0h21l16 3 12 4 15 8 11 9 10 11 7 11 1-40 2-1 25 1 1 5v216l-2 2h-25l-1-1-1-39-8 11-9 10-12 9-16 8-16 5-7 1h-31l-17-4-16-7-11-6-13-10-10-10-10-14-8-15-6-18-2-8-1-9v-24l2-15 5-17 8-18 7-11 8-10 12-12 13-9 15-8 15-5 7-2zm7 29-17 3-11 4-11 6-15 12-11 14-7 12-5 13-2 8-1 15 2 18 5 17 7 14 8 11 8 9 11 8 16 8 16 4h20l16-4 14-7 10-7 10-9 10-13 8-16 4-15 1-7v-17l-3-17-5-13-7-13-8-10-8-8-10-7-16-8-16-4z" fill="#4D4C4D"/>
<path transform="translate(1591,1234)" d="m0 0h21l17 3 14 5 12 7 10 8 10 10 8 12 1-39h27v222l-1 1h-25l-1-1v-37h-2l-4 6-9 10-7 7-14 9-14 6-11 3-7 1h-32l-19-5-16-7-11-7-10-8-12-12-9-13-8-16-5-14-3-16-1-16 2-22 4-17 7-17 8-14 11-14 8-8 17-12 16-8 16-5zm10 29-15 2-14 4-11 6-13 10-7 7-9 12-8 16-4 14-1 8v12l2 16 5 16 9 17 9 11 7 7 14 9 11 5 9 3 6 1h21l15-4 16-8 11-8 12-12 10-16 6-15 2-9v-29l-2-10-5-13-6-12-7-9-9-10-13-9-12-6-13-4z" fill="#4D4C4D"/>
<path transform="translate(1345,1234)" d="m0 0h20l13 2 18 5 21 10 16 12 7 7 10 14 10 19v3h-31l-7-9-6-7v-2l-4-2-7-6-14-8-14-5-20-3-14 1-19 5-11 6-12 9-9 10-8 13-6 14-4 17-1 18 3 17 5 15 6 11 10 13 9 8 14 9 16 6 10 2h21l16-4 12-5 14-9 10-9 7-8 3-5 4-1h26l1 3-8 14-10 14-12 13-13 10-17 9-16 5-10 2h-34l-17-4-16-7-15-9-12-11-5-5-8-9-9-14-8-18-5-18-1-7v-17l2-20 6-21 8-17 8-12 9-10 10-10 15-10 17-8 17-5z" fill="#4D4C4D"/>
<path transform="translate(955,1234)" d="m0 0h8v30l-1 1-13 2-16 8-10 8-8 10-7 13-3 11-1 145-1 1h-26l-1-223 1-1h26l1 29 9-12 6-7 10-7 11-5 6-2z" fill="#4C4B4C"/>
<path transform="translate(1760,1240)" d="m0 0h28v222l-1 1h-27z" fill="#4F4E4F"/>
<path transform="translate(1442,1081)" d="m0 0 5 1v111l-1 1h-7l-1-1-1-11-8 5-10 6-6 2h-17l-13-4-12-9-8-11-4-11v-15l3-10 7-11 10-9 8-4 10-2h12l9 2 8 4 9 7v-39zm-48 39-12 6-7 8-4 8-1 3v14l4 10 7 8 9 6 6 2h15l12-6 7-6 5-9 1-3v-17l-4-9-7-8-9-6-4-1z" fill="#818281"/>
<path transform="translate(1037,1109)" d="m0 0h11l10 2 10 5 7 5v2h2l6 9 4 10v18l-3 10-7 11-8 7-10 5-7 2h-17l-12-4-9-7-4-3v41l-1 1h-8l-1-1-1-110 1-2 9 1 1 1 1 11 11-9 9-4zm-3 11-9 4-8 7-5 8-2 7v14l3 9 9 10 9 5 9 2 12-1 12-6 8-9 4-10v-15l-4-9-4-6-9-7-9-3z" fill="#808180"/>
<path transform="translate(1219,1109)" d="m0 0h14l9 2 10 6 6 7 2 1-1-13 1-1 9-1 1 1v82l-1 1h-8l-1-1v-12l-11 8-10 5-4 1h-18l-10-3-11-7-7-8-5-10-2-7v-14l4-13 7-10 8-7 9-5zm0 11-10 4-8 7-4 5-4 11v9l3 11 6 8 7 6 9 4h16l12-6 9-9 4-9v-16l-4-10-8-9-10-5-4-1z" fill="#828382"/>
<path transform="translate(738,1082)" d="m0 0h11v49h59v-49h10v111l-1 1h-8l-1-1v-52h-59v52l-1 1h-10l-1-110z" fill="#7F807F"/>
<path transform="translate(1501,1109)" d="m0 0h12l9 2 11 6 8 8 7 14 1 4v13h-74l2 10 4 6 5 5 5 4 8 3 8 1 10-2 9-5 9-8 3-3 2-1h7l-1 5-6 9-7 7-8 5-10 3h-18l-10-4-9-6-7-8-5-10-2-7v-15l4-13 8-11 9-7 10-4zm1 10-10 3-8 6-7 9-3 9 2 1h43l20-1-1-6-6-10-10-8-5-2-6-1z" fill="#828382"/>
<path transform="translate(877,1109)" d="m0 0 14 1 12 5 8 6 8 10 4 9 1 5v14l-3 10-6 10-9 9-12 6-5 1h-17l-10-3-9-6-8-8-7-14-1-5v-14l3-10 6-10 7-7 13-7zm-3 11-10 4-8 6-6 9-2 6v18l5 9 7 7 12 6 12 1 10-3 10-7 6-9 2-5 1-6v-8l-3-11-7-9-9-6-7-2z" fill="#828382"/>
<path transform="translate(955,1109)" d="m0 0h9l8 3 7 6 4 8-1 5h-8l-8-9-7-2-7 2-4 5-1 6 3 6 10 5 13 5 8 6 3 5 1 5v8l-2 8-6 8-5 4-5 2h-16l-8-4-7-8-3-9v-4h9l2 1 5 10 7 4h7l8-5 2-5v-8l-2-6-5-2-19-8-7-5-4-7v-13l4-8 7-6z" fill="#828382"/>
<path transform="translate(1150,1082)" d="m0 0h4v29h19l1 2v7l-3 1h-17v72l-1 1h-9l-1-1v-72h-9l-8-1-1-1v-7l1-1h17v-27z" fill="#818281"/>
<path transform="translate(410,714)" d="m0 0 1 2h2l-2 11-19 76-4 2-66 2-1 16 80-1 1-2h3v3l-2 1v3l-11 2h-17l-5 2-7-1-11 1-12-1-2-1-6 1-12-2-8-6v-7l3-6 7-5 9-1 10-2h7l5-1 5 1h21v-2l5-2 1-4h2l1-10 2-2 2-7 2-6 4-16v-8l4-14 6-14z" fill="#E94D54"/>
<path transform="translate(1813,1156)" d="m0 0 3 1 8 16 2 6-11 8-22 13-12 8-4-2-10-17 1-5 21-13 15-10z" fill="#4E4D4E"/>
<path transform="translate(1289,1082)" d="m0 0h11l1 2-1 110h-10l-1-1z" fill="#7D7E7D"/>
<path transform="translate(1103,1111)" d="m0 0h11l1 4-1 79h-10l-1-1z" fill="#7E7F7E"/>
<path transform="translate(322,804)" d="m0 0m-2 1h2l-1 18 80-1 1-2h3v3l-2 1v3l-11 2h-17l-5 2-7-1-11 1-12-1-2-1-6 1-12-2-8-6v-7l3-6z" fill="#EA575D"/>
<path transform="translate(431,857)" d="m0 0h1l12 53 5 20 2-4 2-9h2l2 12-3 8-3 2h-6l-2-4-2-11-6-12v-9h-2l-1-5v-9l-2-9v-4h-2l-1-15h3z" fill="#E94D53"/>
<path transform="translate(249,627)" d="m0 0 5 1 15 9 26 15 24 14 14 8-4 3-10-2-6-3-3-5-5-2-10-5v-2l-4-2v-2h-3v-2h-3v-2h-7l-11-6-1-3-8-1v-2l-7 1-7-2 2-6z" fill="#E94C53"/>
<path transform="translate(604,647)" d="m0 0h3l30 54 12 22 8 14-1 6-5-5v-4l-3-1-2-6h-2l-4-8-4-4-4-7-3-4v-2h-2l-3-7-4-10v-5h-2l-4-12-2-4-5-11-3-4z" fill="#E94E54"/>
<path transform="translate(494,967)" d="m0 0h1v99h-5l1-3-4 1v-11l2-2 1-8v-22l-1-9-1-22 2-9 2-11z" fill="#E8373A"/>
<path transform="translate(484,736)" d="m0 0 3 1v5h-3l-7 21-10 33-3 10-4-1-1 3-2-5v-1l4-8 1-9 2-3 3-15h2l2-7 1-4 5-8h2v-3h2l-1-5h2v-3z" fill="#E94E54"/>
<path transform="translate(539,660)" d="m0 0m-2 1 2 1-2 4h-3v2l-8 4-3 6-4 2h-3l-1 3-6 4-3 5h-4v3h-5l-3-3 1-3-3-1-1-6h-2l2-7 3 3v3h2l1 10 18-13 18-14z" fill="#E94B52"/>
<path transform="translate(273,821)" d="m0 0v3h-2l-1 4-7 4-7 3-9 4-1 2-4-1v2h-3l-1 3-5 3h-4v3h-2v3l-4-1v2l-13 5-3-1 24-14 26-15 14-8z" fill="#EA545B"/>
<path transform="translate(590,621)" d="m0 0h3l10 19-1 2-5-5-2-3-6-2h-6l-3 3-7 2v-3l14-11z" fill="#E94D54"/>
<path transform="translate(191,914)" d="m0 0 4 2 3 3 2 6 2 2v2l4 5v2h4l1 3 2 2v2l1 2h2l2 5h-2v2l4 2-1 4-1 3-4-5-15-27-8-13z" fill="#E94E55"/>
<path transform="translate(1104,1083)" d="m0 0h10v17l-4 1-6-1z" fill="#848584"/>
<path transform="translate(657,750)" d="m0 0 5 5-1 3-14 8-28 17-4 1 4-5 2 1v-2l4-2 1-3 10-3 2-3 5-1 6-4 3-3 1-4 4-2z" fill="#E94D54"/>
<path transform="translate(230,788)" d="m0 0h5l3 1v2l7 2v2l9 2 2 2 9 3 2 1 2 5 2 4-10-5-17-10-14-8z" fill="#EA5359"/>
<path transform="translate(185,737)" d="m0 0 2 1v6l-2 2h-3l-1 5 6 8v3h2l1 3-5-2-11-7 5-9z" fill="#E95057"/>
<path transform="translate(344,657)" d="m0 0 3 1v5l1 3h2l1 7-3 5-4 1-1-3v-16z" fill="#EB6066"/>
<path transform="translate(240,840)" d="m0 0h2v2h-3l-1 3-5 3h-4v3h-2v3l-4-1v2l-13 5-3-1 24-14z" fill="#E94B52"/>
<path transform="translate(496,822)" d="m0 0h44v1l-25 1-3 3-10-2h-3z" fill="#EE797E"/>
<path transform="translate(474,555)" d="m0 0h18l1 3-2 6-2 1v-2h-2l-1-3-7-2-5-2z" fill="#E94950"/>
<path transform="translate(657,750)" d="m0 0 5 5-1 3-14 8-2 1 2-4 5-4 1-4 4-2z" fill="#E95057"/>
<path transform="translate(243 1e3)" d="m0 0h5l5 3 3 1-9 5h-2l-4-8z" fill="#E94950"/>
<path transform="translate(177,885)" d="m0 0 2 1v2h2l1 4-1 2h2l2 3 2 1v9l-4-5-8-14 2-1z" fill="#E94E55"/>
<path transform="translate(598,792)" d="m0 0 4 1-12 7-3 1h-14v-1l11-1 5-4 2-2 2 1z" fill="#EA535A"/>
<path transform="translate(491,675)" d="m0 0 3 3v3h2l1 12-2 1-1-3 1-2-3-1-1-6h-2z" fill="#E8484F"/>
<path transform="translate(344,637)" d="m0 0h2l1 9-2 11h-1z" fill="#E94950"/>
<path transform="translate(539,660)" d="m0 0m-2 1 2 1-2 4h-3v2l-5 3-4-1z" fill="#EB5B60"/>
<path transform="translate(570,636)" d="m0 0 2 3-6 5-6 2 1-3z" fill="#E94D54"/>
<path transform="translate(436,791)" d="m0 0 3 3 1 6h2l1 3-4-1-1 3-2-10z" fill="#E94950"/>
<path transform="translate(240,840)" d="m0 0h2v2h-3l-1 3-5 3-4-1 9-6z" fill="#E94E55"/>
<path transform="translate(185,737)" d="m0 0 2 1v6l-2 2h-4l2-6z" fill="#EA545A"/>
<path transform="translate(484,736)" d="m0 0 3 1v5h-3l-1 2h-2l-1-4h2v-3z" fill="#E94950"/>
<path transform="translate(462,807)" d="m0 0 1 2-3 10-2-4v-5z" fill="#EB5B62"/>
<path transform="translate(495,762)" d="m0 0 3 1v2h2l1 11-2-3z" fill="#EA555C"/>
<path transform="translate(478,825)" d="m0 0 6 1 5 1v1l-9 1v2h-3z" fill="#E8484F"/>
<path transform="translate(424,729)" d="m0 0h2l1 4v11h-1l-2-10z" fill="#EA565D"/>
</svg>
